<?xml version="1.0" encoding="UTF-8" standalone="no"?>
<svg
   id="Capa_2"
   data-name="Capa 2"
   viewBox="0 0 217.98204 56.970002"
   version="1.1"
   sodipodi:docname="logo.svg"
   inkscape:version="1.4.4 (dcaf3e7, 2026-05-05)"
   width="217.98204"
   height="56.970001"
   xmlns:inkscape="http://www.inkscape.org/namespaces/inkscape"
   xmlns:sodipodi="http://sodipodi.sourceforge.net/DTD/sodipodi-0.dtd"
   xmlns="http://www.w3.org/2000/svg"
   xmlns:svg="http://www.w3.org/2000/svg">
  <sodipodi:namedview
     id="namedview862"
     pagecolor="#ffffff"
     bordercolor="#000000"
     borderopacity="0.25"
     inkscape:showpageshadow="2"
     inkscape:pageopacity="0.0"
     inkscape:pagecheckerboard="0"
     inkscape:deskcolor="#d1d1d1"
     inkscape:zoom="2.0073694"
     inkscape:cx="5.977973"
     inkscape:cy="16.688508"
     inkscape:window-width="1920"
     inkscape:window-height="1009"
     inkscape:window-x="-8"
     inkscape:window-y="-8"
     inkscape:window-maximized="1"
     inkscape:current-layer="aemet_miteco_col_pos" />
  <defs
     id="defs3">
    <style
       id="style1">
      .cls-1 {
        fill: #f7cc7e;
      }

      .cls-1, .cls-2, .cls-3, .cls-4, .cls-5, .cls-6, .cls-7, .cls-8, .cls-9 {
        fill-rule: evenodd;
      }

      .cls-10, .cls-4 {
        fill: #0044ae;
      }

      .cls-11 {
        clip-path: url(#clippath-4);
      }

      .cls-2 {
        fill: #006f46;
      }

      .cls-3, .cls-12 {
        fill: #bcbab9;
      }

      .cls-13, .cls-5 {
        fill: #fff;
      }

      .cls-14 {
        fill: #1951a3;
      }

      .cls-15 {
        fill: none;
      }

      .cls-6 {
        fill: #d95aaf;
      }

      .cls-16 {
        clip-path: url(#clippath-1);
      }

      .cls-17, .cls-8 {
        fill: #b60027;
      }

      .cls-7, .cls-18 {
        fill: #a07e00;
      }

      .cls-19 {
        clip-path: url(#clippath-3);
      }

      .cls-20, .cls-9 {
        fill: #211915;
      }

      .cls-21 {
        fill: #f7d117;
      }

      .cls-22 {
        clip-path: url(#clippath-2);
      }

      .cls-23 {
        fill: #f5e326;
      }

      .cls-24 {
        clip-path: url(#clippath);
      }
    </style>
    <clipPath
       id="clippath">
      <rect
         class="cls-15"
         width="223.97"
         height="57"
         id="rect1"
         x="0"
         y="0" />
    </clipPath>
    <clipPath
       id="clippath-1">
      <path
         class="cls-15"
         d="m 15.07,23.63 h -3.42 c 0,0 0,0 0,0 h -0.03 v 0.09 c 0,0 0.02,0 0.02,0 0.08,0.04 0.14,0.12 0.14,0.23 0,0.09 -0.05,0.17 -0.13,0.21 -0.01,0 -0.03,0 -0.04,0 h -0.03 c -0.07,0.05 -0.12,0.11 -0.12,0.19 0,0.13 0.11,0.21 0.25,0.21 h 3.37 c 0.13,0 0.25,-0.09 0.25,-0.21 0,-0.08 -0.06,-0.15 -0.14,-0.19 v 0 c -0.1,-0.04 -0.17,-0.13 -0.17,-0.23 0,-0.1 0.07,-0.19 0.16,-0.23 v 0 c 0,0 0,0 0,0 l -0.03,-0.09 -0.09,0.02 z m -3.24,-2.18 h -0.04 c 0,0 0.03,0.05 0.03,0.05 0,0 0.07,0.1 0.11,0.22 v 0 c 0.03,0.07 0.04,0.12 0.05,0.13 l -0.04,0.04 v 0 c 0,0 0,0.02 0,0.02 v 0.02 c 0,0.1 0.09,0.15 0.22,0.19 0.02,0 0.05,0.01 0.08,0.02 v 0.19 h 1.59 v -0.1 c 0.35,-0.03 0.66,-0.08 0.81,-0.11 v 0 c 0.13,-0.04 0.22,-0.1 0.22,-0.19 v -0.02 0 c 0,0 -0.06,-0.07 -0.06,-0.07 0,-0.02 0.04,-0.11 0.07,-0.15 0.06,-0.11 0.11,-0.19 0.11,-0.19 L 15,21.46 h -0.04 c -0.4,-0.13 -0.95,-0.21 -1.56,-0.21 -0.61,0 -1.16,0.08 -1.56,0.19 m 1.26,-2.69 v 0.71 h 0.11 c -0.08,0.1 -0.13,0.27 -0.13,0.46 0,0.3 0.12,0.55 0.31,0.56 0.19,0 0.31,-0.27 0.31,-0.56 0,-0.19 -0.05,-0.36 -0.13,-0.46 h 0.13 v -0.71 h -0.58 z"
         id="path1" />
    </clipPath>
    <clipPath
       id="clippath-2">
      <rect
         class="cls-15"
         x="11.28"
         y="18.620001"
         width="4.25"
         height="6.1300001"
         id="rect2" />
    </clipPath>
    <clipPath
       id="clippath-3">
      <path
         class="cls-15"
         d="m 41.66,23.71 v 0 c 0,0 0.01,0 0.01,0 0.09,0.04 0.15,0.13 0.15,0.23 0,0.11 -0.07,0.2 -0.17,0.23 v 0 c -0.08,0.04 -0.14,0.1 -0.14,0.19 0,0.13 0.12,0.21 0.25,0.21 h 3.37 c 0.13,0 0.25,-0.09 0.25,-0.21 0,-0.08 -0.05,-0.15 -0.12,-0.18 v 0 c 0,0 -0.03,-0.01 -0.03,-0.01 -0.01,0 -0.03,0 -0.04,0 -0.08,-0.04 -0.13,-0.12 -0.13,-0.21 0,-0.1 0.05,-0.19 0.14,-0.23 h 0.03 c 0,0 0,-0.1 0,-0.1 H 45.2 c 0,0 -0.07,0 -0.07,0 h -3.36 l -0.09,-0.02 -0.02,0.09 z m 0.23,-2.26 h -0.04 c 0,0 0.03,0.05 0.03,0.05 0,0 0.08,0.11 0.11,0.22 0.03,0.07 0.04,0.14 0.04,0.14 v 0 c 0,0 -0.03,0.04 -0.03,0.04 v 0 c 0,0 0,0.02 0,0.02 v 0.02 c 0,0.09 0.09,0.15 0.22,0.19 0.02,0 0.05,0.01 0.08,0.02 v 0.2 h 1.59 v -0.11 c 0.35,-0.03 0.66,-0.07 0.81,-0.11 0.13,-0.04 0.22,-0.1 0.22,-0.19 v -0.02 0 c 0,0 -0.06,-0.07 -0.06,-0.07 0,-0.03 0.04,-0.11 0.07,-0.15 0.06,-0.11 0.11,-0.19 0.11,-0.19 l 0.02,-0.04 h -0.04 c -0.4,-0.13 -0.95,-0.21 -1.56,-0.21 -0.61,0 -1.15,0.08 -1.55,0.2 m 1.96,-1.91 0.07,0.06 -0.07,0.06 -0.06,-0.06 z m -0.12,0.06 c 0,0.06 0.05,0.12 0.11,0.12 0.06,0 0.12,-0.05 0.12,-0.12 0,-0.07 -0.06,-0.12 -0.12,-0.12 -0.06,0 -0.11,0.05 -0.11,0.12 m 0.41,-0.08 0.07,0.06 -0.07,0.06 -0.06,-0.06 z m -0.12,0.07 c 0,0.06 0.05,0.12 0.12,0.12 0.07,0 0.12,-0.05 0.12,-0.12 0,-0.07 -0.06,-0.11 -0.12,-0.11 -0.06,0 -0.12,0.05 -0.12,0.11 m -0.88,-0.66 v 0.7 h 0.12 c -0.05,0.04 -0.09,0.11 -0.12,0.18 -0.09,-0.05 -0.2,-0.08 -0.32,-0.08 -0.31,0 -0.57,0.2 -0.57,0.47 0,0.08 0.03,0.14 0.06,0.19 l 0.06,-0.04 c -0.03,-0.05 -0.05,-0.1 -0.05,-0.16 0,-0.22 0.22,-0.4 0.5,-0.4 0.11,0 0.22,0.03 0.3,0.08 0,0.04 -0.01,0.09 -0.01,0.13 0,0.23 0.13,0.44 0.3,0.44 0.18,0 0.31,-0.21 0.31,-0.44 0,-0.04 0,-0.09 -0.01,-0.13 0.08,-0.05 0.19,-0.08 0.3,-0.08 0.28,0 0.5,0.19 0.5,0.4 0,0.05 -0.02,0.12 -0.04,0.16 l 0.05,0.04 c 0.04,-0.06 0.05,-0.13 0.05,-0.2 0,-0.27 -0.26,-0.47 -0.57,-0.47 -0.12,0 -0.23,0.03 -0.32,0.08 -0.03,-0.07 -0.06,-0.13 -0.11,-0.17 q 0,0 0,0 h 0.13 v -0.7 h -0.58 z"
         id="path2" />
    </clipPath>
    <clipPath
       id="clippath-4">
      <rect
         class="cls-15"
         x="41.360001"
         y="18.74"
         width="4.25"
         height="6.02"
         id="rect3" />
    </clipPath>
    <clipPath
       id="clippath-0">
      <rect
         class="cls-15"
         width="223.97"
         height="57"
         id="rect1-9"
         x="0"
         y="0" />
    </clipPath>
    <clipPath
       id="clippath-1-4">
      <path
         class="cls-15"
         d="m 15.07,23.63 h -3.42 c 0,0 0,0 0,0 h -0.03 v 0.09 c 0,0 0.02,0 0.02,0 0.08,0.04 0.14,0.12 0.14,0.23 0,0.09 -0.05,0.17 -0.13,0.21 -0.01,0 -0.03,0 -0.04,0 h -0.03 c -0.07,0.05 -0.12,0.11 -0.12,0.19 0,0.13 0.11,0.21 0.25,0.21 h 3.37 c 0.13,0 0.25,-0.09 0.25,-0.21 0,-0.08 -0.06,-0.15 -0.14,-0.19 v 0 c -0.1,-0.04 -0.17,-0.13 -0.17,-0.23 0,-0.1 0.07,-0.19 0.16,-0.23 v 0 c 0,0 0,0 0,0 l -0.03,-0.09 -0.09,0.02 z m -3.24,-2.18 h -0.04 c 0,0 0.03,0.05 0.03,0.05 0,0 0.07,0.1 0.11,0.22 v 0 c 0.03,0.07 0.04,0.12 0.05,0.13 l -0.04,0.04 v 0 c 0,0 0,0.02 0,0.02 v 0.02 c 0,0.1 0.09,0.15 0.22,0.19 0.02,0 0.05,0.01 0.08,0.02 v 0.19 h 1.59 v -0.1 c 0.35,-0.03 0.66,-0.08 0.81,-0.11 v 0 c 0.13,-0.04 0.22,-0.1 0.22,-0.19 v -0.02 0 c 0,0 -0.06,-0.07 -0.06,-0.07 0,-0.02 0.04,-0.11 0.07,-0.15 0.06,-0.11 0.11,-0.19 0.11,-0.19 L 15,21.46 h -0.04 c -0.4,-0.13 -0.95,-0.21 -1.56,-0.21 -0.61,0 -1.16,0.08 -1.56,0.19 m 1.26,-2.69 v 0.71 h 0.11 c -0.08,0.1 -0.13,0.27 -0.13,0.46 0,0.3 0.12,0.55 0.31,0.56 0.19,0 0.31,-0.27 0.31,-0.56 0,-0.19 -0.05,-0.36 -0.13,-0.46 h 0.13 v -0.71 h -0.58 z"
         id="path1-8" />
    </clipPath>
    <clipPath
       id="clippath-2-8">
      <rect
         class="cls-15"
         x="11.28"
         y="18.620001"
         width="4.25"
         height="6.1300001"
         id="rect2-2" />
    </clipPath>
    <clipPath
       id="clippath-3-4">
      <path
         class="cls-15"
         d="m 41.66,23.71 v 0 c 0,0 0.01,0 0.01,0 0.09,0.04 0.15,0.13 0.15,0.23 0,0.11 -0.07,0.2 -0.17,0.23 v 0 c -0.08,0.04 -0.14,0.1 -0.14,0.19 0,0.13 0.12,0.21 0.25,0.21 h 3.37 c 0.13,0 0.25,-0.09 0.25,-0.21 0,-0.08 -0.05,-0.15 -0.12,-0.18 v 0 c 0,0 -0.03,-0.01 -0.03,-0.01 -0.01,0 -0.03,0 -0.04,0 -0.08,-0.04 -0.13,-0.12 -0.13,-0.21 0,-0.1 0.05,-0.19 0.14,-0.23 h 0.03 c 0,0 0,-0.1 0,-0.1 H 45.2 c 0,0 -0.07,0 -0.07,0 h -3.36 l -0.09,-0.02 -0.02,0.09 z m 0.23,-2.26 h -0.04 c 0,0 0.03,0.05 0.03,0.05 0,0 0.08,0.11 0.11,0.22 0.03,0.07 0.04,0.14 0.04,0.14 v 0 c 0,0 -0.03,0.04 -0.03,0.04 v 0 c 0,0 0,0.02 0,0.02 v 0.02 c 0,0.09 0.09,0.15 0.22,0.19 0.02,0 0.05,0.01 0.08,0.02 v 0.2 h 1.59 v -0.11 c 0.35,-0.03 0.66,-0.07 0.81,-0.11 0.13,-0.04 0.22,-0.1 0.22,-0.19 v -0.02 0 c 0,0 -0.06,-0.07 -0.06,-0.07 0,-0.03 0.04,-0.11 0.07,-0.15 0.06,-0.11 0.11,-0.19 0.11,-0.19 l 0.02,-0.04 h -0.04 c -0.4,-0.13 -0.95,-0.21 -1.56,-0.21 -0.61,0 -1.15,0.08 -1.55,0.2 m 1.96,-1.91 0.07,0.06 -0.07,0.06 -0.06,-0.06 z m -0.12,0.06 c 0,0.06 0.05,0.12 0.11,0.12 0.06,0 0.12,-0.05 0.12,-0.12 0,-0.07 -0.06,-0.12 -0.12,-0.12 -0.06,0 -0.11,0.05 -0.11,0.12 m 0.41,-0.08 0.07,0.06 -0.07,0.06 -0.06,-0.06 z m -0.12,0.07 c 0,0.06 0.05,0.12 0.12,0.12 0.07,0 0.12,-0.05 0.12,-0.12 0,-0.07 -0.06,-0.11 -0.12,-0.11 -0.06,0 -0.12,0.05 -0.12,0.11 m -0.88,-0.66 v 0.7 h 0.12 c -0.05,0.04 -0.09,0.11 -0.12,0.18 -0.09,-0.05 -0.2,-0.08 -0.32,-0.08 -0.31,0 -0.57,0.2 -0.57,0.47 0,0.08 0.03,0.14 0.06,0.19 l 0.06,-0.04 c -0.03,-0.05 -0.05,-0.1 -0.05,-0.16 0,-0.22 0.22,-0.4 0.5,-0.4 0.11,0 0.22,0.03 0.3,0.08 0,0.04 -0.01,0.09 -0.01,0.13 0,0.23 0.13,0.44 0.3,0.44 0.18,0 0.31,-0.21 0.31,-0.44 0,-0.04 0,-0.09 -0.01,-0.13 0.08,-0.05 0.19,-0.08 0.3,-0.08 0.28,0 0.5,0.19 0.5,0.4 0,0.05 -0.02,0.12 -0.04,0.16 l 0.05,0.04 c 0.04,-0.06 0.05,-0.13 0.05,-0.2 0,-0.27 -0.26,-0.47 -0.57,-0.47 -0.12,0 -0.23,0.03 -0.32,0.08 -0.03,-0.07 -0.06,-0.13 -0.11,-0.17 q 0,0 0,0 h 0.13 v -0.7 h -0.58 z"
         id="path2-5" />
    </clipPath>
    <clipPath
       id="clippath-4-5">
      <rect
         class="cls-15"
         x="41.360001"
         y="18.74"
         width="4.25"
         height="6.02"
         id="rect3-1" />
    </clipPath>
  </defs>
  <g
     id="logo"
     transform="translate(-223.90199,0.01660919)">
    <g
       id="aemet_miteco_col_pos">
      <g
         id="miteco-1"
         transform="matrix(0.97330786,0,0,1,330.08794,123)">
        <rect
           class="cls-21"
           y="-123.01661"
           width="223.96001"
           height="56.970001"
           id="rect4-1"
           style="fill:#ffffff"
           x="-109.09801" />
      </g>
      <path
         id="aemet_institucional_pos"
         class="cls-14"
         d="m 321.32,11.83 h -7.58 c 0,0 0,0 0,0 v 2.63 c -2.16,-2.95 -5.36,-3.43 -7.36,-3.43 -3.26,0 -6.11,1.15 -8.16,3.21 -2.15,2.15 -3.62,5.51 -3.62,9.46 0,3.1 0.94,6.16 3.41,8.78 2.57,2.74 5.41,3.58 8.78,3.58 1.95,0 4.89,-0.47 6.94,-3.62 v 2.83 h 7.58 V 11.83 Z m -8.95,16.08 c -1,1 -2.42,1.63 -3.95,1.63 -1.78,0 -3.41,-0.75 -4.46,-1.85 -0.68,-0.73 -1.58,-2.1 -1.58,-4.21 0,-2.11 0.95,-3.47 1.73,-4.25 1,-1 2.53,-1.68 4.16,-1.68 1.37,0 3.05,0.52 4.2,1.62 1.1,1.06 1.73,2.63 1.73,4.31 0,2.01 -0.83,3.48 -1.83,4.43 z m 75.94,-14.46 c -1.42,-1.37 -3.73,-2.21 -6.57,-2.21 -1.84,0 -3.37,0.32 -4.99,1.32 -1.53,0.95 -2.42,2.05 -3,3 -0.63,-1.42 -1.63,-2.57 -2.84,-3.26 -1.58,-0.95 -3.42,-1.05 -4.41,-1.05 -1.79,0 -4.63,0.37 -6.58,3.32 v -2.74 h -7.57 v 23.46 h 7.57 V 23.3 c 0,-0.79 0.06,-3.42 1.47,-4.78 0.74,-0.69 1.63,-0.95 2.63,-0.95 0.79,0 1.74,0.15 2.52,0.95 1.16,1.16 1.21,3 1.21,4.57 v 12.2 h 7.57 V 23.61 c 0,-1.52 0.16,-3.37 1.16,-4.63 0.63,-0.84 1.68,-1.42 2.95,-1.42 1.1,0 2.1,0.47 2.74,1.26 1,1.26 1,3.37 1,4.57 v 11.89 h 7.57 V 20.45 c 0,-1.68 -0.16,-4.84 -2.42,-6.99 z M 419,24.07 c 0,-2.9 -0.52,-6.59 -3.32,-9.52 -2.9,-3.05 -6.68,-3.53 -9.3,-3.53 -2.62,0 -6.15,0.54 -8.99,3.36 -2.36,2.42 -3.58,5.91 -3.58,9.27 0,3.89 1.48,7 3.53,9.04 2.73,2.73 5.83,3.36 9.36,3.36 2.62,0 5.17,-0.37 7.4,-1.74 1.26,-0.76 3.12,-2.27 4.23,-5.06 l 0.31,-0.81 -0.85,-0.09 -0.5,-0.06 -5.8,-0.61 c -0.63,1.31 -1.53,1.9 -1.64,1.96 -0.79,0.48 -1.94,0.68 -3.06,0.68 -1.12,0 -2.73,-0.2 -3.88,-1.48 -0.94,-1.05 -1.42,-2.73 -1.42,-3.99 h 17.52 v -0.79 z m -17.26,-3.72 c 0.22,-1.05 0.74,-1.9 1.31,-2.55 0.74,-0.72 1.9,-1.51 3.86,-1.51 1.51,0 2.73,0.52 3.56,1.33 1.11,1.03 1.48,2.51 1.53,2.73 z m 27.95,-8.53 V 7.14 h -7.57 v 28.14 h 7.57 V 17.92 h 4.68 v -6.1 z m -80.4,12.25 c 0,-2.9 -0.52,-6.59 -3.32,-9.52 -2.9,-3.05 -6.68,-3.53 -9.3,-3.53 -2.62,0 -6.15,0.54 -8.99,3.36 -2.36,2.42 -3.58,5.91 -3.58,9.27 0,3.89 1.48,7 3.53,9.04 2.73,2.73 5.83,3.36 9.36,3.36 2.62,0 5.17,-0.37 7.4,-1.74 1.26,-0.76 3.12,-2.27 4.23,-5.06 l 0.31,-0.81 -0.85,-0.09 -0.5,-0.06 -5.8,-0.61 c -0.63,1.31 -1.53,1.9 -1.64,1.96 -0.79,0.48 -1.94,0.68 -3.06,0.68 -1.12,0 -2.73,-0.2 -3.88,-1.48 -0.94,-1.05 -1.42,-2.73 -1.42,-3.99 h 17.52 v -0.79 z m -17.26,-3.72 c 0.22,-1.05 0.74,-1.9 1.31,-2.55 0.74,-0.72 1.9,-1.51 3.86,-1.51 1.51,0 2.73,0.52 3.56,1.33 1.11,1.03 1.48,2.51 1.53,2.73 z m -32.48,29.42 -0.62,-1.87 h -2.58 l -0.6,1.87 h -1.14 l 2.36,-6.91 h 1.41 l 2.36,6.91 h -1.17 z m -1.89,-5.88 h -0.05 l -1,3.05 h 2.04 z m 8.28,6.37 c 0,0.53 -0.2,0.94 -0.61,1.21 -0.41,0.27 -1.07,0.41 -2,0.41 -0.42,0 -0.78,-0.03 -1.07,-0.08 -0.29,-0.06 -0.53,-0.14 -0.72,-0.24 -0.19,-0.11 -0.33,-0.23 -0.41,-0.39 -0.09,-0.15 -0.13,-0.33 -0.13,-0.52 0,-0.28 0.08,-0.51 0.23,-0.66 0.16,-0.16 0.37,-0.27 0.65,-0.33 v -0.11 c -0.39,-0.12 -0.58,-0.39 -0.58,-0.79 0,-0.26 0.09,-0.47 0.27,-0.61 0.18,-0.14 0.39,-0.24 0.64,-0.3 v -0.04 c -0.3,-0.14 -0.54,-0.35 -0.7,-0.61 -0.16,-0.26 -0.24,-0.57 -0.24,-0.92 0,-0.53 0.18,-0.95 0.53,-1.28 0.35,-0.32 0.86,-0.48 1.52,-0.48 0.36,0 0.67,0.05 0.93,0.16 v -0.14 c 0,-0.23 0.05,-0.41 0.16,-0.54 0.11,-0.13 0.28,-0.19 0.51,-0.19 h 0.79 v 0.87 h -1.05 v 0.21 c 0.23,0.15 0.41,0.35 0.53,0.59 0.12,0.24 0.19,0.51 0.19,0.81 0,0.52 -0.18,0.94 -0.53,1.26 -0.35,0.32 -0.86,0.48 -1.52,0.48 -0.25,0 -0.48,-0.03 -0.67,-0.08 -0.13,0.05 -0.25,0.11 -0.35,0.19 -0.1,0.08 -0.15,0.19 -0.15,0.32 0,0.14 0.06,0.24 0.19,0.3 0.13,0.06 0.3,0.09 0.53,0.09 h 1.27 c 0.63,0 1.09,0.13 1.38,0.38 0.28,0.25 0.43,0.6 0.43,1.04 z m -1.01,0.12 c 0,-0.18 -0.07,-0.32 -0.2,-0.43 -0.14,-0.11 -0.38,-0.16 -0.74,-0.16 h -1.74 c -0.24,0.14 -0.36,0.34 -0.36,0.59 0,0.21 0.08,0.38 0.25,0.51 0.17,0.13 0.45,0.19 0.86,0.19 h 0.67 c 0.84,0 1.26,-0.24 1.26,-0.71 z m -1.62,-3.15 c 0.32,0 0.56,-0.07 0.74,-0.21 0.17,-0.14 0.26,-0.36 0.26,-0.66 v -0.2 c 0,-0.3 -0.09,-0.52 -0.26,-0.66 -0.18,-0.14 -0.42,-0.21 -0.74,-0.21 -0.32,0 -0.56,0.07 -0.74,0.21 -0.17,0.14 -0.26,0.36 -0.26,0.66 v 0.2 c 0,0.3 0.09,0.52 0.26,0.66 0.18,0.14 0.42,0.21 0.74,0.21 z m 5.3,2.66 c -0.37,0 -0.7,-0.06 -0.99,-0.19 -0.29,-0.13 -0.54,-0.31 -0.74,-0.54 -0.2,-0.23 -0.36,-0.52 -0.47,-0.85 -0.11,-0.33 -0.16,-0.7 -0.16,-1.11 0,-0.41 0.05,-0.78 0.16,-1.11 0.11,-0.33 0.27,-0.62 0.47,-0.85 0.2,-0.23 0.45,-0.41 0.74,-0.54 0.29,-0.12 0.62,-0.19 0.99,-0.19 0.37,0 0.71,0.07 0.99,0.2 0.29,0.13 0.53,0.31 0.72,0.55 0.19,0.23 0.34,0.51 0.43,0.82 0.1,0.31 0.14,0.64 0.14,1 v 0.41 h -3.53 v 0.17 c 0,0.39 0.12,0.72 0.35,0.97 0.23,0.25 0.57,0.38 1,0.38 0.32,0 0.58,-0.07 0.8,-0.21 0.22,-0.14 0.4,-0.32 0.55,-0.56 l 0.63,0.63 c -0.19,0.32 -0.47,0.57 -0.83,0.76 -0.36,0.19 -0.79,0.28 -1.27,0.28 z m 0,-4.54 c -0.18,0 -0.35,0.03 -0.51,0.1 -0.15,0.07 -0.29,0.16 -0.4,0.28 -0.11,0.12 -0.19,0.26 -0.25,0.43 -0.06,0.16 -0.09,0.35 -0.09,0.54 v 0.07 h 2.4 v -0.1 c 0,-0.4 -0.1,-0.71 -0.31,-0.96 -0.21,-0.25 -0.48,-0.36 -0.84,-0.36 z m 3.2,4.42 v -5.15 h 1.08 v 0.85 h 0.05 c 0.11,-0.28 0.28,-0.51 0.51,-0.69 0.23,-0.18 0.54,-0.28 0.94,-0.28 0.53,0 0.94,0.17 1.23,0.52 0.29,0.35 0.44,0.84 0.44,1.48 v 3.27 h -1.08 v -3.13 c 0,-0.8 -0.32,-1.21 -0.97,-1.21 -0.14,0 -0.28,0.02 -0.41,0.05 -0.14,0.04 -0.26,0.09 -0.36,0.16 -0.1,0.07 -0.19,0.17 -0.25,0.28 -0.06,0.11 -0.09,0.24 -0.09,0.4 v 3.44 h -1.08 z m 7.44,0.12 c -0.37,0 -0.7,-0.06 -0.99,-0.19 -0.29,-0.13 -0.53,-0.31 -0.73,-0.54 -0.2,-0.23 -0.35,-0.52 -0.45,-0.85 -0.11,-0.33 -0.16,-0.7 -0.16,-1.11 0,-0.41 0.05,-0.78 0.16,-1.11 0.1,-0.33 0.26,-0.62 0.45,-0.85 0.19,-0.23 0.44,-0.41 0.73,-0.54 0.29,-0.12 0.62,-0.19 0.99,-0.19 0.52,0 0.94,0.12 1.27,0.35 0.33,0.23 0.57,0.54 0.72,0.92 l -0.89,0.42 c -0.07,-0.24 -0.2,-0.43 -0.38,-0.57 -0.18,-0.14 -0.42,-0.21 -0.72,-0.21 -0.39,0 -0.69,0.12 -0.9,0.37 -0.2,0.25 -0.3,0.57 -0.3,0.96 v 0.92 c 0,0.39 0.1,0.72 0.3,0.96 0.2,0.25 0.5,0.37 0.9,0.37 0.32,0 0.57,-0.08 0.76,-0.23 0.19,-0.15 0.34,-0.36 0.45,-0.62 l 0.82,0.44 c -0.17,0.42 -0.43,0.75 -0.77,0.98 -0.34,0.23 -0.76,0.34 -1.26,0.34 z m 3.32,-6.19 c -0.22,0 -0.39,-0.05 -0.49,-0.16 -0.1,-0.11 -0.15,-0.24 -0.15,-0.41 v -0.17 c 0,-0.17 0.05,-0.3 0.15,-0.41 0.1,-0.11 0.27,-0.16 0.49,-0.16 0.22,0 0.39,0.05 0.48,0.16 0.09,0.11 0.15,0.24 0.15,0.41 v 0.17 c 0,0.17 -0.05,0.3 -0.15,0.41 -0.1,0.11 -0.26,0.16 -0.48,0.16 z m -0.55,0.92 h 1.08 v 5.15 h -1.08 z m 6.11,5.15 c -0.28,0 -0.5,-0.08 -0.65,-0.24 -0.15,-0.16 -0.24,-0.37 -0.28,-0.62 h -0.05 c -0.1,0.32 -0.28,0.57 -0.54,0.73 -0.26,0.17 -0.58,0.25 -0.96,0.25 -0.53,0 -0.95,-0.14 -1.23,-0.42 -0.28,-0.28 -0.43,-0.65 -0.43,-1.12 0,-0.51 0.19,-0.9 0.56,-1.16 0.37,-0.26 0.92,-0.39 1.64,-0.39 h 0.93 v -0.44 c 0,-0.32 -0.09,-0.56 -0.26,-0.73 -0.17,-0.17 -0.44,-0.26 -0.8,-0.26 -0.3,0 -0.55,0.07 -0.74,0.2 -0.19,0.13 -0.35,0.3 -0.48,0.51 L 324.2,45.5 c 0.17,-0.29 0.41,-0.53 0.72,-0.72 0.31,-0.19 0.72,-0.28 1.22,-0.28 0.67,0 1.18,0.15 1.53,0.46 0.35,0.31 0.53,0.76 0.53,1.34 v 2.58 h 0.54 v 0.88 h -0.6 z m -2.18,-0.7 c 0.34,0 0.61,-0.07 0.83,-0.22 0.22,-0.15 0.33,-0.35 0.33,-0.6 v -0.74 h -0.91 c -0.75,0 -1.12,0.23 -1.12,0.69 v 0.18 c 0,0.23 0.08,0.4 0.23,0.52 0.15,0.12 0.37,0.17 0.64,0.17 z m 6.08,0.7 v -6.91 h 4.43 v 0.99 h -3.31 v 1.92 h 3 v 0.99 h -3 v 2.02 h 3.31 v 0.99 z m 7.04,0.12 c -0.49,0 -0.9,-0.09 -1.23,-0.26 -0.33,-0.17 -0.62,-0.41 -0.86,-0.71 l 0.69,-0.63 c 0.19,0.23 0.4,0.41 0.64,0.54 0.23,0.13 0.51,0.19 0.82,0.19 0.31,0 0.55,-0.06 0.71,-0.18 0.15,-0.12 0.23,-0.29 0.23,-0.51 0,-0.17 -0.05,-0.31 -0.16,-0.42 -0.11,-0.12 -0.3,-0.19 -0.57,-0.22 l -0.48,-0.06 c -0.53,-0.07 -0.94,-0.22 -1.24,-0.46 -0.3,-0.24 -0.45,-0.6 -0.45,-1.07 0,-0.25 0.05,-0.47 0.14,-0.67 0.09,-0.19 0.22,-0.36 0.39,-0.49 0.17,-0.14 0.37,-0.24 0.6,-0.31 0.23,-0.07 0.49,-0.11 0.78,-0.11 0.46,0 0.84,0.07 1.13,0.22 0.29,0.14 0.56,0.35 0.79,0.6 l -0.66,0.63 c -0.13,-0.16 -0.3,-0.29 -0.52,-0.41 -0.22,-0.12 -0.46,-0.17 -0.74,-0.17 -0.3,0 -0.52,0.06 -0.66,0.18 -0.14,0.12 -0.21,0.27 -0.21,0.47 0,0.2 0.06,0.35 0.19,0.45 0.13,0.1 0.33,0.17 0.6,0.22 l 0.48,0.06 c 0.57,0.09 0.98,0.25 1.24,0.5 0.26,0.25 0.39,0.58 0.39,0.99 0,0.25 -0.05,0.48 -0.14,0.68 -0.1,0.2 -0.23,0.37 -0.41,0.52 -0.18,0.14 -0.39,0.26 -0.64,0.34 -0.25,0.08 -0.53,0.12 -0.84,0.12 z m 4.52,-0.12 c -0.38,0 -0.66,-0.1 -0.85,-0.29 -0.19,-0.19 -0.29,-0.47 -0.29,-0.83 V 45.5 h -0.8 v -0.88 h 0.43 c 0.18,0 0.3,-0.04 0.37,-0.12 0.07,-0.08 0.1,-0.21 0.1,-0.39 v -0.9 h 0.97 v 1.41 h 1.08 v 0.88 h -1.08 v 3.38 h 1 v 0.88 h -0.94 z m 5.87,0 c -0.28,0 -0.5,-0.08 -0.65,-0.24 -0.15,-0.16 -0.24,-0.37 -0.28,-0.62 h -0.05 c -0.1,0.32 -0.28,0.57 -0.54,0.73 -0.26,0.17 -0.58,0.25 -0.96,0.25 -0.53,0 -0.95,-0.14 -1.23,-0.42 -0.28,-0.28 -0.43,-0.65 -0.43,-1.12 0,-0.51 0.19,-0.9 0.56,-1.16 0.37,-0.26 0.92,-0.39 1.64,-0.39 h 0.93 v -0.44 c 0,-0.32 -0.09,-0.56 -0.26,-0.73 -0.17,-0.17 -0.44,-0.26 -0.8,-0.26 -0.3,0 -0.55,0.07 -0.74,0.2 -0.19,0.13 -0.35,0.3 -0.48,0.51 l -0.64,-0.58 c 0.17,-0.29 0.41,-0.53 0.72,-0.72 0.31,-0.19 0.72,-0.28 1.22,-0.28 0.67,0 1.18,0.15 1.53,0.46 0.35,0.31 0.53,0.76 0.53,1.34 v 2.58 h 0.54 v 0.88 h -0.6 z m -2.18,-0.7 c 0.34,0 0.61,-0.07 0.83,-0.22 0.22,-0.15 0.33,-0.35 0.33,-0.6 v -0.74 h -0.91 c -0.75,0 -1.12,0.23 -1.12,0.69 v 0.18 c 0,0.23 0.08,0.4 0.23,0.52 0.15,0.12 0.37,0.17 0.64,0.17 z m 4.95,0.7 c -0.38,0 -0.66,-0.1 -0.85,-0.29 -0.19,-0.19 -0.29,-0.47 -0.29,-0.83 V 45.5 h -0.8 v -0.88 h 0.43 c 0.18,0 0.3,-0.04 0.37,-0.12 0.07,-0.08 0.1,-0.21 0.1,-0.39 v -0.9 h 0.97 v 1.41 h 1.08 v 0.88 h -1.08 v 3.38 h 1 v 0.88 h -0.94 z m 5.67,0 c -0.28,0 -0.5,-0.08 -0.65,-0.24 -0.15,-0.16 -0.24,-0.37 -0.28,-0.62 h -0.05 c -0.1,0.32 -0.28,0.57 -0.54,0.73 -0.26,0.17 -0.58,0.25 -0.96,0.25 -0.53,0 -0.95,-0.14 -1.23,-0.42 -0.28,-0.28 -0.43,-0.65 -0.43,-1.12 0,-0.51 0.19,-0.9 0.56,-1.16 0.37,-0.26 0.92,-0.39 1.64,-0.39 h 0.93 v -0.44 c 0,-0.32 -0.09,-0.56 -0.26,-0.73 -0.17,-0.17 -0.44,-0.26 -0.8,-0.26 -0.3,0 -0.55,0.07 -0.74,0.2 -0.19,0.13 -0.35,0.3 -0.48,0.51 l -0.64,-0.58 c 0.17,-0.29 0.41,-0.53 0.72,-0.72 0.31,-0.19 0.72,-0.28 1.22,-0.28 0.67,0 1.18,0.15 1.53,0.46 0.36,0.31 0.53,0.76 0.53,1.34 v 2.58 h 0.54 v 0.88 h -0.6 z m -2.18,-0.7 c 0.34,0 0.61,-0.07 0.83,-0.22 0.22,-0.15 0.33,-0.35 0.33,-0.6 v -0.74 h -0.91 c -0.75,0 -1.12,0.23 -1.12,0.69 v 0.18 c 0,0.23 0.08,0.4 0.23,0.52 0.16,0.12 0.37,0.17 0.64,0.17 z m 4.65,0.7 c -0.37,0 -0.64,-0.09 -0.83,-0.28 -0.18,-0.19 -0.27,-0.45 -0.27,-0.79 v -6.26 h 1.08 v 6.44 h 0.71 v 0.88 h -0.69 z m 7.32,-0.85 h -0.05 c -0.11,0.3 -0.3,0.54 -0.55,0.71 -0.25,0.17 -0.55,0.26 -0.9,0.26 -0.65,0 -1.16,-0.24 -1.51,-0.71 -0.35,-0.47 -0.53,-1.13 -0.53,-1.98 0,-0.85 0.18,-1.51 0.53,-1.98 0.36,-0.47 0.86,-0.71 1.51,-0.71 0.34,0 0.64,0.08 0.9,0.25 0.25,0.17 0.44,0.41 0.55,0.72 h 0.05 v -3.03 h 1.08 v 7.32 h -1.08 z m -1.17,0.04 c 0.33,0 0.61,-0.08 0.83,-0.24 0.22,-0.16 0.34,-0.37 0.34,-0.64 v -1.76 c 0,-0.26 -0.11,-0.48 -0.34,-0.64 -0.23,-0.16 -0.5,-0.24 -0.83,-0.24 -0.38,0 -0.68,0.12 -0.9,0.36 -0.22,0.24 -0.34,0.56 -0.34,0.96 v 0.89 c 0,0.4 0.11,0.71 0.34,0.96 0.23,0.24 0.53,0.36 0.9,0.36 z m 5.52,0.93 c -0.37,0 -0.7,-0.06 -0.99,-0.19 -0.29,-0.13 -0.54,-0.31 -0.74,-0.54 -0.2,-0.23 -0.36,-0.52 -0.47,-0.85 -0.11,-0.33 -0.16,-0.7 -0.16,-1.11 0,-0.41 0.05,-0.78 0.16,-1.11 0.11,-0.33 0.27,-0.62 0.47,-0.85 0.2,-0.23 0.45,-0.41 0.74,-0.54 0.29,-0.12 0.62,-0.19 0.99,-0.19 0.37,0 0.71,0.07 0.99,0.2 0.29,0.13 0.53,0.31 0.72,0.55 0.19,0.23 0.34,0.51 0.43,0.82 0.09,0.31 0.14,0.64 0.14,1 v 0.41 h -3.53 v 0.17 c 0,0.39 0.12,0.72 0.35,0.97 0.23,0.25 0.57,0.38 1,0.38 0.32,0 0.58,-0.07 0.8,-0.21 0.22,-0.14 0.4,-0.32 0.55,-0.56 l 0.63,0.63 c -0.19,0.32 -0.47,0.57 -0.83,0.76 -0.36,0.19 -0.78,0.28 -1.27,0.28 z m 0,-4.54 c -0.19,0 -0.35,0.03 -0.51,0.1 -0.15,0.07 -0.29,0.16 -0.39,0.28 -0.11,0.12 -0.19,0.26 -0.25,0.43 -0.06,0.16 -0.09,0.35 -0.09,0.54 v 0.07 h 2.4 v -0.1 c 0,-0.4 -0.1,-0.71 -0.31,-0.96 -0.21,-0.25 -0.48,-0.36 -0.84,-0.36 z m 11.01,-0.86 H 383 l -0.54,1.12 -1.51,2.76 -1.51,-2.76 -0.54,-1.12 h -0.05 v 5.29 h -1.07 v -6.91 h 1.33 l 1.85,3.51 h 0.06 l 1.85,-3.51 h 1.27 v 6.91 h -1.07 v -5.29 z m 4.42,5.4 c -0.37,0 -0.7,-0.06 -0.99,-0.19 -0.29,-0.13 -0.54,-0.31 -0.74,-0.54 -0.2,-0.23 -0.36,-0.52 -0.47,-0.85 -0.11,-0.33 -0.16,-0.7 -0.16,-1.11 0,-0.41 0.05,-0.78 0.16,-1.11 0.11,-0.33 0.27,-0.62 0.47,-0.85 0.2,-0.23 0.45,-0.41 0.74,-0.54 0.29,-0.12 0.62,-0.19 0.99,-0.19 0.37,0 0.71,0.07 1,0.2 0.29,0.13 0.53,0.31 0.72,0.55 0.19,0.23 0.34,0.51 0.43,0.82 0.1,0.31 0.14,0.64 0.14,1 v 0.41 h -3.53 v 0.17 c 0,0.39 0.12,0.72 0.35,0.97 0.24,0.25 0.57,0.38 1.01,0.38 0.32,0 0.58,-0.07 0.8,-0.21 0.22,-0.14 0.4,-0.32 0.55,-0.56 l 0.63,0.63 c -0.19,0.32 -0.47,0.57 -0.83,0.76 -0.36,0.19 -0.79,0.28 -1.27,0.28 z m 0,-4.54 c -0.18,0 -0.35,0.03 -0.51,0.1 -0.16,0.07 -0.29,0.16 -0.4,0.28 -0.11,0.12 -0.19,0.26 -0.25,0.43 -0.06,0.16 -0.09,0.35 -0.09,0.54 v 0.07 h 2.4 v -0.1 c 0,-0.4 -0.1,-0.71 -0.31,-0.96 -0.21,-0.25 -0.48,-0.36 -0.84,-0.36 z m 4.82,4.42 c -0.38,0 -0.66,-0.1 -0.85,-0.29 -0.19,-0.19 -0.29,-0.47 -0.29,-0.83 V 45.5 h -0.8 v -0.88 h 0.44 c 0.18,0 0.3,-0.04 0.37,-0.12 0.07,-0.08 0.1,-0.21 0.1,-0.39 v -0.9 h 0.97 v 1.41 h 1.08 v 0.88 h -1.08 v 3.38 h 1 v 0.88 h -0.94 z m 4.08,0.12 c -0.37,0 -0.7,-0.06 -0.99,-0.19 -0.29,-0.13 -0.54,-0.31 -0.74,-0.54 -0.2,-0.23 -0.36,-0.52 -0.47,-0.85 -0.11,-0.33 -0.16,-0.7 -0.16,-1.11 0,-0.41 0.05,-0.78 0.16,-1.11 0.11,-0.33 0.27,-0.62 0.47,-0.85 0.2,-0.23 0.45,-0.41 0.74,-0.54 0.29,-0.12 0.62,-0.19 0.99,-0.19 0.37,0 0.71,0.07 0.99,0.2 0.29,0.13 0.53,0.31 0.72,0.55 0.19,0.23 0.34,0.51 0.43,0.82 0.09,0.31 0.14,0.64 0.14,1 v 0.41 h -3.53 v 0.17 c 0,0.39 0.12,0.72 0.35,0.97 0.23,0.25 0.57,0.38 1,0.38 0.32,0 0.58,-0.07 0.8,-0.21 0.22,-0.14 0.4,-0.32 0.55,-0.56 l 0.63,0.63 c -0.19,0.32 -0.47,0.57 -0.83,0.76 -0.36,0.19 -0.78,0.28 -1.27,0.28 z m 0,-4.54 c -0.19,0 -0.35,0.03 -0.51,0.1 -0.15,0.07 -0.29,0.16 -0.39,0.28 -0.11,0.12 -0.19,0.26 -0.25,0.43 -0.06,0.16 -0.09,0.35 -0.09,0.54 v 0.07 h 2.4 v -0.1 c 0,-0.4 -0.1,-0.71 -0.31,-0.96 -0.21,-0.25 -0.48,-0.36 -0.84,-0.36 z m 5.42,4.54 c -0.36,0 -0.68,-0.06 -0.97,-0.19 -0.29,-0.13 -0.54,-0.31 -0.75,-0.54 -0.2,-0.23 -0.36,-0.52 -0.48,-0.85 -0.11,-0.33 -0.17,-0.7 -0.17,-1.11 0,-0.41 0.06,-0.78 0.17,-1.11 0.11,-0.33 0.27,-0.62 0.48,-0.85 0.21,-0.23 0.45,-0.41 0.75,-0.54 0.29,-0.12 0.62,-0.19 0.97,-0.19 0.35,0 0.68,0.06 0.97,0.19 0.29,0.13 0.54,0.31 0.75,0.54 0.21,0.23 0.36,0.52 0.48,0.85 0.11,0.33 0.17,0.7 0.17,1.11 0,0.41 -0.06,0.78 -0.17,1.11 -0.11,0.33 -0.27,0.62 -0.48,0.85 -0.2,0.23 -0.45,0.41 -0.75,0.54 -0.3,0.13 -0.62,0.19 -0.97,0.19 z m 0,-0.9 c 0.37,0 0.67,-0.11 0.89,-0.34 0.22,-0.23 0.34,-0.57 0.34,-1.02 v -0.87 c 0,-0.45 -0.11,-0.79 -0.34,-1.02 -0.23,-0.23 -0.52,-0.34 -0.89,-0.34 -0.37,0 -0.67,0.11 -0.89,0.34 -0.22,0.23 -0.34,0.57 -0.34,1.02 v 0.87 c 0,0.45 0.11,0.79 0.34,1.02 0.23,0.23 0.52,0.34 0.89,0.34 z m 3.47,0.78 v -5.15 h 1.08 v 0.99 h 0.05 c 0.07,-0.26 0.23,-0.49 0.46,-0.69 0.23,-0.2 0.55,-0.3 0.96,-0.3 h 0.29 v 1.04 h -0.43 c -0.43,0 -0.76,0.07 -0.98,0.21 -0.23,0.14 -0.34,0.34 -0.34,0.61 v 3.29 h -1.08 z m 5.67,0.12 c -0.36,0 -0.68,-0.06 -0.97,-0.19 -0.29,-0.13 -0.54,-0.31 -0.75,-0.54 -0.2,-0.23 -0.36,-0.52 -0.48,-0.85 -0.11,-0.33 -0.17,-0.7 -0.17,-1.11 0,-0.41 0.06,-0.78 0.17,-1.11 0.11,-0.33 0.27,-0.62 0.48,-0.85 0.21,-0.23 0.45,-0.41 0.75,-0.54 0.29,-0.12 0.62,-0.19 0.97,-0.19 0.35,0 0.68,0.06 0.97,0.19 0.29,0.13 0.54,0.31 0.75,0.54 0.21,0.23 0.36,0.52 0.48,0.85 0.11,0.33 0.17,0.7 0.17,1.11 0,0.41 -0.06,0.78 -0.17,1.11 -0.11,0.33 -0.27,0.62 -0.48,0.85 -0.2,0.23 -0.45,0.41 -0.75,0.54 -0.3,0.13 -0.62,0.19 -0.97,0.19 z m 0,-0.9 c 0.37,0 0.67,-0.11 0.89,-0.34 0.22,-0.23 0.34,-0.57 0.34,-1.02 v -0.87 c 0,-0.45 -0.11,-0.79 -0.34,-1.02 -0.23,-0.23 -0.52,-0.34 -0.89,-0.34 -0.37,0 -0.67,0.11 -0.89,0.34 -0.22,0.23 -0.34,0.57 -0.34,1.02 v 0.87 c 0,0.45 0.11,0.79 0.34,1.02 0.23,0.23 0.52,0.34 0.89,0.34 z m 4.38,0.78 c -0.37,0 -0.64,-0.09 -0.83,-0.28 -0.18,-0.19 -0.27,-0.45 -0.27,-0.79 v -6.26 h 1.08 v 6.44 H 416 v 0.88 h -0.69 z m 3.65,0.12 c -0.36,0 -0.68,-0.06 -0.97,-0.19 -0.29,-0.13 -0.54,-0.31 -0.75,-0.54 -0.2,-0.23 -0.36,-0.52 -0.48,-0.85 -0.11,-0.33 -0.17,-0.7 -0.17,-1.11 0,-0.41 0.06,-0.78 0.17,-1.11 0.11,-0.33 0.27,-0.62 0.48,-0.85 0.21,-0.23 0.45,-0.41 0.75,-0.54 0.29,-0.12 0.62,-0.19 0.97,-0.19 0.35,0 0.68,0.06 0.98,0.19 0.29,0.13 0.54,0.31 0.75,0.54 0.21,0.23 0.36,0.52 0.48,0.85 0.11,0.33 0.17,0.7 0.17,1.11 0,0.41 -0.06,0.78 -0.17,1.11 -0.11,0.33 -0.27,0.62 -0.48,0.85 -0.2,0.23 -0.45,0.41 -0.75,0.54 -0.29,0.13 -0.62,0.19 -0.98,0.19 z m 0,-0.9 c 0.37,0 0.67,-0.11 0.89,-0.34 0.23,-0.23 0.34,-0.57 0.34,-1.02 v -0.87 c 0,-0.45 -0.11,-0.79 -0.34,-1.02 -0.22,-0.23 -0.52,-0.34 -0.89,-0.34 -0.37,0 -0.67,0.11 -0.89,0.34 -0.22,0.23 -0.34,0.57 -0.34,1.02 v 0.87 c 0,0.45 0.11,0.79 0.34,1.02 0.23,0.23 0.52,0.34 0.89,0.34 z m 7.79,1.27 c 0,0.53 -0.2,0.94 -0.61,1.21 -0.41,0.27 -1.08,0.41 -2,0.41 -0.42,0 -0.78,-0.03 -1.07,-0.08 -0.29,-0.06 -0.53,-0.14 -0.72,-0.24 -0.19,-0.11 -0.32,-0.23 -0.41,-0.39 -0.09,-0.15 -0.13,-0.33 -0.13,-0.52 0,-0.28 0.08,-0.51 0.23,-0.66 0.15,-0.16 0.37,-0.27 0.65,-0.33 v -0.11 c -0.39,-0.12 -0.58,-0.39 -0.58,-0.79 0,-0.26 0.09,-0.47 0.27,-0.61 0.18,-0.14 0.39,-0.24 0.64,-0.3 v -0.04 c -0.3,-0.14 -0.54,-0.35 -0.7,-0.61 -0.16,-0.26 -0.24,-0.57 -0.24,-0.92 0,-0.53 0.18,-0.95 0.53,-1.28 0.35,-0.33 0.86,-0.48 1.52,-0.48 0.36,0 0.67,0.05 0.93,0.16 v -0.14 c 0,-0.23 0.05,-0.41 0.16,-0.54 0.11,-0.13 0.28,-0.19 0.51,-0.19 h 0.79 v 0.87 h -1.05 v 0.21 c 0.23,0.15 0.41,0.35 0.53,0.59 0.12,0.24 0.19,0.51 0.19,0.81 0,0.52 -0.18,0.94 -0.53,1.26 -0.36,0.32 -0.87,0.48 -1.53,0.48 -0.25,0 -0.47,-0.03 -0.67,-0.08 -0.13,0.05 -0.25,0.11 -0.35,0.19 -0.1,0.08 -0.15,0.19 -0.15,0.32 0,0.14 0.06,0.24 0.19,0.3 0.13,0.06 0.3,0.09 0.53,0.09 h 1.27 c 0.63,0 1.09,0.13 1.38,0.38 0.29,0.25 0.43,0.6 0.43,1.04 z m -1.01,0.12 c 0,-0.18 -0.07,-0.32 -0.2,-0.43 -0.13,-0.11 -0.38,-0.16 -0.74,-0.16 h -1.74 c -0.24,0.14 -0.36,0.34 -0.36,0.59 0,0.21 0.08,0.38 0.25,0.51 0.17,0.13 0.45,0.19 0.86,0.19 h 0.67 c 0.84,0 1.26,-0.24 1.26,-0.71 z m -1.62,-3.15 c 0.32,0 0.56,-0.07 0.74,-0.21 0.18,-0.14 0.26,-0.36 0.26,-0.66 v -0.2 c 0,-0.3 -0.09,-0.52 -0.26,-0.66 -0.17,-0.14 -0.42,-0.21 -0.74,-0.21 -0.32,0 -0.56,0.07 -0.74,0.21 -0.18,0.14 -0.26,0.36 -0.26,0.66 v 0.2 c 0,0.3 0.09,0.52 0.26,0.66 0.17,0.14 0.42,0.21 0.74,0.21 z m 4,-3.22 -0.67,-0.33 0.9,-1.78 0.94,0.46 z m -0.66,5.76 v -5.15 h 1.08 v 5.15 z m 6.31,0 c -0.28,0 -0.5,-0.08 -0.65,-0.24 -0.15,-0.16 -0.24,-0.37 -0.28,-0.62 h -0.05 c -0.1,0.32 -0.28,0.57 -0.54,0.73 -0.26,0.17 -0.58,0.25 -0.96,0.25 -0.53,0 -0.95,-0.14 -1.23,-0.42 -0.28,-0.28 -0.43,-0.65 -0.43,-1.12 0,-0.51 0.19,-0.9 0.56,-1.16 0.37,-0.26 0.92,-0.39 1.64,-0.39 h 0.93 v -0.44 c 0,-0.32 -0.09,-0.56 -0.26,-0.73 -0.17,-0.17 -0.44,-0.26 -0.8,-0.26 -0.3,0 -0.55,0.07 -0.74,0.2 -0.19,0.13 -0.35,0.3 -0.48,0.51 l -0.64,-0.58 c 0.17,-0.29 0.41,-0.53 0.72,-0.72 0.31,-0.19 0.72,-0.28 1.22,-0.28 0.67,0 1.18,0.15 1.53,0.46 0.35,0.31 0.53,0.76 0.53,1.34 v 2.58 h 0.54 v 0.88 h -0.6 z m -2.18,-0.7 c 0.34,0 0.61,-0.07 0.83,-0.22 0.22,-0.15 0.33,-0.35 0.33,-0.6 v -0.74 h -0.91 c -0.75,0 -1.12,0.23 -1.12,0.69 v 0.18 c 0,0.23 0.08,0.4 0.23,0.52 0.15,0.12 0.37,0.17 0.64,0.17 z m -195.12,3.54 c -1.71,0 -3.11,-1.39 -3.12,-3.09 0,-0.83 0.31,-1.62 0.89,-2.22 0.58,-0.6 1.37,-0.93 2.2,-0.94 h 0.03 c 1.71,0 3.11,1.39 3.12,3.09 0.02,1.72 -1.37,3.14 -3.09,3.16 z m 13.48,0 c -0.55,0 -1.08,-0.24 -1.45,-0.65 l -4.35,-4.85 c -0.47,-0.52 -0.68,-1.17 -0.67,-2.05 l 0.02,-2.22 c 0,-0.39 0.31,-0.69 0.7,-0.69 0.12,0 0.24,0.03 0.35,0.09 0.49,0.27 0.99,0.52 1.49,0.72 1.63,0.66 3.4,1 5.27,1 5.86,0 11.93,-3.31 16.81,-5.96 l 0.22,-0.12 c 1.74,-0.95 3.48,-1.96 5.16,-2.95 0.67,-0.39 1.34,-0.79 2.01,-1.17 0.12,-0.07 0.25,-0.1 0.38,-0.1 0.32,0 0.6,0.19 0.72,0.49 l 0.64,1.66 c 0.23,0.59 0.13,1.27 -0.25,1.78 l -0.69,0.91 c -0.19,0.25 -0.45,0.42 -0.75,0.48 -2.03,0.46 -5.18,1.3 -8.69,2.69 -6.49,2.58 -11.69,6.03 -15.45,10.27 -0.37,0.42 -0.91,0.66 -1.46,0.66 v 0 z m 9.72,-3.28 c -0.32,0 -0.59,-0.2 -0.69,-0.51 -0.09,-0.31 0.02,-0.63 0.29,-0.81 3.56,-2.36 7.76,-4.3 12.49,-5.77 0.07,-0.02 0.15,-0.03 0.23,-0.03 0.28,0 0.53,0.16 0.66,0.42 0.13,0.26 0.1,0.55 -0.08,0.78 l -3.63,4.76 c -0.49,0.65 -1.24,1.03 -2.06,1.04 l -7.22,0.13 z m -8.49,-7.52 c -1.32,0 -2.57,-0.2 -3.7,-0.58 -1,-0.34 -1.99,-0.84 -2.94,-1.49 -0.63,-0.43 -1,-1.14 -0.99,-1.91 l 0.03,-3.21 c 0,-0.55 0.46,-1.01 1.01,-1.01 0.2,0 0.4,0.06 0.57,0.18 1.18,0.81 2.33,1.46 3.52,1.99 2.11,0.94 4.5,1.44 6.92,1.44 4.13,0 7.82,-1.41 10.38,-3.97 2.22,-2.22 2.97,-5.02 2.03,-7.67 -1.01,-2.88 -3.59,-5.14 -5.98,-6.98 -1.75,-1.34 -3.54,-2.55 -4.9,-3.46 -0.49,-0.32 -0.99,-0.66 -1.47,-0.99 -2.43,-1.64 -4.93,-3.34 -7.68,-4.39 -1.37,-0.52 -2.66,-0.78 -3.83,-0.78 -1.17,0 -2.22,0.26 -3.14,0.78 -1.74,0.99 -3.07,2.76 -4.06,5.41 -0.18,0.48 -0.66,0.81 -1.18,0.81 -0.04,0 -0.09,0 -0.13,0 l -0.62,-0.06 c -1.09,-0.11 -2.01,-0.9 -2.29,-1.96 l -0.92,-3.54 c -0.25,-0.97 0.08,-2.02 0.84,-2.68 l 3.04,-2.59 c 0.48,-0.41 1.09,-0.63 1.71,-0.63 0.07,0 0.14,0 0.21,0 l 20.71,1.63 c 0.69,0.05 1.28,0.49 1.55,1.13 0.53,1.29 1.02,2.44 1.63,3.46 1.39,2.33 3.3,4.06 5.69,5.15 1.26,0.58 2.61,0.99 3.92,1.39 0.98,0.3 1.99,0.61 2.96,0.99 1.2,0.46 2.15,1 2.91,1.64 0.83,0.7 1.32,1.7 1.39,2.81 0.07,1.15 -0.34,2.3 -1.13,3.14 l -1.74,1.87 c -0.58,0.62 -0.76,1.52 -0.46,2.31 l 0.24,0.66 c 0.14,0.38 -0.02,0.8 -0.37,1 -1.09,0.61 -2.19,1.24 -3.25,1.85 -1.13,0.65 -2.29,1.32 -3.46,1.97 l -0.42,0.23 c -3.77,2.08 -7.67,4.23 -11.87,5.35 -1.72,0.46 -3.26,0.68 -4.71,0.68 z m 6.07,-16.58 c 0.58,1.15 0.25,2.52 -0.78,3.18 -0.58,0.37 -1.27,0.56 -2.05,0.56 -2.37,0 -5.07,-1.73 -5.9,-3.79 -0.39,-0.97 -0.27,-2.08 0.31,-2.92 0.52,-0.75 1.33,-1.14 2.32,-1.14 2.15,0 5,1.92 6.1,4.1 z m 8.96,1.9 c -0.6,-3.51 -5.08,-6.61 -7.48,-8.27 -0.26,-0.18 -0.49,-0.34 -0.7,-0.49 -0.78,-0.52 -1.57,-1.08 -2.34,-1.61 -2.89,-2.02 -5.88,-4.11 -9.28,-5.27 -0.72,-0.26 -1.42,-0.39 -2.09,-0.39 -2.18,0 -3.96,1.34 -4.99,3.78 -0.15,0.33 -0.13,0.7 0.04,1.02 0.18,0.32 0.49,0.52 0.86,0.56 l 2.44,0.25 c 0.62,0.07 1.07,0.58 1.06,1.2 l -0.1,10.25 c 0,1.14 0.51,2.22 1.38,2.91 1.69,1.33 3.37,2.31 5.14,3.01 1.66,0.65 3.56,1 5.49,1 4.16,0 7.67,-1.55 9.62,-4.26 0.84,-1.16 1.15,-2.4 0.93,-3.69 z m -10.73,3.88 c -0.3,0.04 -0.62,0.07 -0.93,0.07 -2.91,0 -6.13,-1.89 -7.64,-4.49 -1.08,-1.86 -1.14,-3.85 -0.16,-5.59 0.86,-1.29 2.37,-2.04 4.14,-2.04 0.75,0 1.5,0.13 2.19,0.39 4,1.39 6.11,4.49 6.41,6.95 0.18,2.3 -1.51,4.27 -4.01,4.7 z m 0.99,-2.59 c -0.58,0.37 -1.27,0.56 -2.05,0.56 -2.37,0 -5.07,-1.73 -5.9,-3.79 -0.39,-0.97 -0.27,-2.08 0.31,-2.92 0.52,-0.75 1.33,-1.14 2.32,-1.14 2.15,0 5,1.92 6.1,4.1 0.58,1.15 0.25,2.52 -0.78,3.18 z m 28.77,2.74 c -1.7,0 -3.11,-1.39 -3.12,-3.09 -0.02,-1.72 1.37,-3.14 3.09,-3.16 h 0.03 c 1.71,0 3.11,1.39 3.12,3.09 0,0.83 -0.31,1.62 -0.89,2.22 -0.58,0.6 -1.37,0.93 -2.2,0.94 z m -29.23,23.3 c -0.77,0 -1.4,-0.63 -1.41,-1.39 0,-0.78 0.62,-1.42 1.39,-1.42 H 256 c 0.77,0 1.4,0.63 1.41,1.39 0,0.38 -0.14,0.73 -0.4,1 -0.26,0.27 -0.62,0.42 -0.99,0.42 z m 4.35,0 c -0.77,0 -1.4,-0.63 -1.41,-1.39 0,-0.78 0.62,-1.42 1.39,-1.42 h 0.01 c 0.77,0 1.4,0.63 1.41,1.39 0,0.38 -0.14,0.73 -0.4,1 -0.26,0.27 -0.62,0.42 -0.99,0.42 z m -3.89,-26.04 c -0.58,0.37 -1.27,0.56 -2.05,0.56 -2.37,0 -5.07,-1.73 -5.9,-3.79 -0.39,-0.97 -0.27,-2.08 0.31,-2.92 0.52,-0.75 1.33,-1.14 2.32,-1.14 2.15,0 5,1.92 6.1,4.1 0.58,1.15 0.25,2.52 -0.78,3.18 z m 24.65,-6.93 c -0.27,0 -0.5,-0.15 -0.61,-0.39 -0.74,-1.61 -1.93,-2.89 -3.53,-3.8 -1.6,-0.91 -3.38,-1.46 -5.11,-2 -0.71,-0.22 -1.44,-0.45 -2.16,-0.7 -2.91,-1.02 -4.9,-2.51 -6.24,-4.69 -0.4,-0.65 -0.78,-1.39 -1.19,-2.31 -0.11,-0.24 -0.08,-0.51 0.06,-0.73 0.14,-0.22 0.38,-0.34 0.63,-0.34 0.02,0 0.04,0 0.06,0 l 7.56,0.6 c 0.87,0.07 1.7,0.36 2.4,0.86 4.15,2.89 7.32,5.42 9.99,7.96 0.41,0.39 0.82,0.8 1.27,1.25 0.35,0.36 0.35,0.93 0,1.29 l -2.64,2.78 c -0.13,0.14 -0.31,0.22 -0.5,0.22 z m 5.22,-5.53 c -0.21,0 -0.4,-0.08 -0.55,-0.23 -0.23,-0.23 -0.46,-0.46 -0.67,-0.67 -2.03,-1.98 -4.31,-3.94 -6.99,-5.97 -0.26,-0.2 -0.36,-0.52 -0.25,-0.83 0.1,-0.3 0.37,-0.5 0.69,-0.5 0.02,0 0.04,0 0.06,0 l 9.65,0.76 c 0.78,0.06 1.44,0.58 1.69,1.33 l 0.28,0.85 c 0.22,0.67 0.05,1.41 -0.44,1.93 l -2.92,3.08 c -0.15,0.15 -0.34,0.24 -0.55,0.24 z" />
    </g>
  </g>
</svg>
